<svg width="9344" height="7019" viewBox="0 0 9344 7019" fill="none" xmlns="http://www.w3.org/2000/svg">
<g clip-path="url(#clip0_973_4446)">
<rect width="9344" height="7019" fill="#0A192F"/>
<path d="M4542.39 5.21189L7652.57 1741.44C7674.25 1753.54 7687.68 1776.43 7687.68 1801.25V5269.75C7687.68 5294.57 7674.25 5317.46 7652.57 5329.56L4542.39 7065.79C4521.64 7077.37 4496.36 7077.37 4475.61 7065.79L1365.43 5329.56C1343.75 5317.46 1330.32 5294.57 1330.32 5269.75V1801.25C1330.32 1776.43 1343.75 1753.54 1365.43 1741.44L4475.61 5.21185C4496.36 -6.37289 4521.64 -6.37285 4542.39 5.21189Z" fill="#64FFDA" stroke="#371313"/>
<path d="M4539.44 323.147L7429.65 1886.08C7450.33 1897.26 7463.21 1918.88 7463.21 1942.38V5060.62C7463.21 5084.12 7450.33 5105.74 7429.65 5116.92L4539.44 6679.85C4520.45 6690.13 4497.55 6690.13 4478.56 6679.85L1588.35 5116.92C1567.67 5105.74 1554.79 5084.12 1554.79 5060.62V1942.38C1554.79 1918.88 1567.67 1897.26 1588.35 1886.08L4478.56 323.147C4497.55 312.875 4520.45 312.875 4539.44 323.147Z" fill="#0A192F" stroke="#371313" stroke-width="10"/>
<path d="M4821 4468L4801 5378L5221 5418C5221 5518 5194.33 5618 5141 5718H3986L3971 5543C4174.33 5473 4327.67 5433 4431 5423C4427.67 5216.33 4419.33 4898 4406 4468L3356 2513C3222.67 2486.33 3072.67 2446.33 2906 2393L2921 2218H4221C4277.67 2324.67 4306 2424.67 4306 2518C4142.67 2528 3992.67 2538 3856 2548L4601 4063H4656L5401 2513C5267.67 2493 5111 2453 4931 2393L4946 2218H6156C6212.67 2324.67 6241 2424.67 6241 2518C6094.33 2528 5952.67 2538 5816 2548L4821 4468Z" fill="#64FFDA"/>
</g>
<defs>
<clipPath id="clip0_973_4446">
<rect width="9344" height="7019" fill="white"/>
</clipPath>
</defs>
</svg>
