<svg width="9280" height="7623" viewBox="0 0 9280 7623" fill="none" xmlns="http://www.w3.org/2000/svg">
<rect width="9280" height="7623" fill="#0A192F"/>
<path d="M4611.91 193.602L7865.85 1976.3C7887.8 1988.32 7901.44 2011.35 7901.44 2036.37V5595.63C7901.44 5620.65 7887.8 5643.68 7865.85 5655.7L4611.91 7438.4C4591.41 7449.63 4566.59 7449.63 4546.09 7438.4L1292.15 5655.7C1270.2 5643.68 1256.56 5620.65 1256.56 5595.63V2036.37C1256.56 2011.35 1270.2 1988.32 1292.15 1976.3L4546.09 193.602C4566.59 182.368 4591.41 182.368 4611.91 193.602Z" fill="#64FFDA" stroke="#371313"/>
<path d="M4603.44 645.147L7493.65 2208.08C7514.33 2219.26 7527.21 2240.88 7527.21 2264.38V5382.62C7527.21 5406.12 7514.33 5427.74 7493.65 5438.92L4603.44 7001.85C4584.45 7012.13 4561.55 7012.13 4542.56 7001.85L1652.35 5438.92C1631.67 5427.74 1618.79 5406.12 1618.79 5382.62V2264.38C1618.79 2240.88 1631.67 2219.26 1652.35 2208.08L4542.56 645.147C4561.55 634.875 4584.45 634.875 4603.44 645.147Z" fill="#0A192F" stroke="#371313" stroke-width="10"/>
<path d="M4829 5303L5249 5447L5169 5607H3953V5483L4329 5187V4475L3301 2815L2985 2623L3065 2463H4281V2587L3909 2875L4709 4175L5541 2875L4901 2623L4981 2463H6197V2587L5869 2787L4829 4415V5303Z" fill="#64FFDA"/>
</svg>
